<svg xmlns="http://www.w3.org/2000/svg" width="135.43" height="50" viewBox="0 0 135.43 50">
  <g id="Group_140" data-name="Group 140" transform="translate(-892.285 -35.424)">
    <path id="Path_114" data-name="Path 114" d="M983.924,57.707l-9.96-10.545,11.072-11.738h-7.388a5.459,5.459,0,0,0-3.959,1.738L958.86,52.867,944.036,37.162a5.486,5.486,0,0,0-3.965-1.738h-7.388l11.07,11.738L933.8,57.707c-4.631,4.9-7.134,5.23-7.581,5.246h10.019a5.439,5.439,0,0,0,3.957-1.733l8.423-8.919L958.86,63.156,969.111,52.3l8.422,8.919a5.435,5.435,0,0,0,3.952,1.733h10.022c-.447-.016-2.952-.342-7.583-5.246" fill="#beac80"/>
    <g id="Group_139" data-name="Group 139">
      <path id="Path_115" data-name="Path 115" d="M909.667,83.6a1.415,1.415,0,0,0,1.434,1.235h.312v.2H905.5v-.187h.31a.8.8,0,0,0,.765-.845l-.779-7.128-3.687,6.374a5.576,5.576,0,0,0-.754,2.177h-.187l-5.064-8.5L895.33,84a.8.8,0,0,0,.768.845h.307v.187h-4.12v-.2h.313a1.4,1.4,0,0,0,1.438-1.235l1.631-12.62h.182l6.107,10.042,5.85-10.031h.182Z" fill="#beac80"/>
      <path id="Path_116" data-name="Path 116" d="M923.357,83.734a1.744,1.744,0,0,0,1.546,1.1h.147v.2h-5.784v-.2h.155a.729.729,0,0,0,.669-1.1l-.762-1.8h-4.169l-.786,1.829a.727.727,0,0,0,.685,1.064h.155v.2h-3.931v-.2h.161a1.729,1.729,0,0,0,1.5-1.026L917,75.065a13.584,13.584,0,0,0,.915-2.385h.168ZM919,81.172l-1.741-4.1-1.764,4.1Z" fill="#beac80"/>
      <path id="Path_117" data-name="Path 117" d="M938.258,84.835v.2h-6.093v-.2h.214a.679.679,0,0,0,.6-1l-2.23-3.476-2.527,3.465a.665.665,0,0,0,.591,1.016h.217v.2H924.71v-.2h.236a2.26,2.26,0,0,0,1.678-.861l3.495-4.6-3.272-5.091a2.206,2.206,0,0,0-1.685-.877h-.238V73.21h6.064V73.4h-.214a.682.682,0,0,0-.609,1.006l2.085,3.224,2.1-3.219a.675.675,0,0,0-.593-1.011h-.214V73.21h4.3V73.4H937.6a2.2,2.2,0,0,0-1.679.877l-3,4.385,3.406,5.273a2.176,2.176,0,0,0,1.7.9Z" fill="#beac80"/>
      <path id="Path_118" data-name="Path 118" d="M958.862,71.258v.2h-.173a1.928,1.928,0,0,0-1.658,1.1l-4.66,10.3a13.515,13.515,0,0,0-.966,2.573h-.179l-5.965-12.84a1.935,1.935,0,0,0-1.674-1.128h-.158v-.2h6.265v.192h-.171a.844.844,0,0,0-.757,1.236l3.332,8.133,3.467-8.133a.83.83,0,0,0-.753-1.236h-.174v-.192Z" fill="#beac80"/>
      <path id="Path_119" data-name="Path 119" d="M972.352,79.135c0,3.791-2.792,6.15-6.968,6.15s-6.957-2.359-6.957-6.15c0-3.808,2.791-6.161,6.957-6.161s6.968,2.353,6.968,6.161m-3.027,0c0-3.332-1.546-5.385-3.941-5.385s-3.944,2.053-3.944,5.385,1.559,5.374,3.944,5.374,3.941-2.053,3.941-5.374" fill="#beac80"/>
      <path id="Path_120" data-name="Path 120" d="M983.32,85.033h-9.252v-.2h.235a1.053,1.053,0,0,0,1.065-1.032V74.466a1.06,1.06,0,0,0-1.081-1.042h-.219v-.2h5.455v.2H979.3a1.072,1.072,0,0,0-1.091,1.042v9.771h2.372a3.445,3.445,0,0,0,3.31-2.824h.2Z" fill="#beac80"/>
      <path id="Path_121" data-name="Path 121" d="M1000.394,83.862a1.238,1.238,0,0,0,1.257.973h.278v.2h-5.471v-.2h.271a.67.67,0,0,0,.681-.78l-.767-5.637L993.5,83.407a4.862,4.862,0,0,0-.706,2h-.179l-4.537-6.893-.674,5.546a.693.693,0,0,0,.679.78h.27v.2h-3.74v-.2h.267a1.236,1.236,0,0,0,1.294-1.064l1.527-10.8h.163l5.556,8.316,5.219-8.316h.171Z" fill="#beac80"/>
      <path id="Path_122" data-name="Path 122" d="M1012.279,85.028h-9.254v-.193h.238a1.05,1.05,0,0,0,1.062-1.032V74.451a1.036,1.036,0,0,0-1.062-1.027h-.238v-.2h6.923a7.656,7.656,0,0,0,2.045-.294V76.06h-.2v-.182A1.694,1.694,0,0,0,1010,74.017h-2.834v4.77h2.238a1.472,1.472,0,0,0,1.505-1.561V77.1h.2v4.166h-.2v-.14a1.47,1.47,0,0,0-1.478-1.556h-2.265v4.669h2.369a3.467,3.467,0,0,0,3.318-2.829h.19Z" fill="#beac80"/>
      <path id="Path_123" data-name="Path 123" d="M1020.8,73.226c2.181,0,4.294.77,4.294,3.224a3.073,3.073,0,0,1-2.733,3.177,4,4,0,0,1,1.9,1.674,20.579,20.579,0,0,0,1.428,2.192c.767,1.048,1.211,1.337,2.024,1.342v.2h-1.652c-2.134,0-3.145-.412-4.08-1.888a14.209,14.209,0,0,1-1.316-2.684c-.332-.823-.818-1.176-1.177-1.2v-.166h.5c.813-.016,1.714-.316,2.043-1.968a2.99,2.99,0,0,0,.064-.823,2.064,2.064,0,0,0-2.091-2.252c-.508-.026-.9,0-1.123-.01v9.754a1.048,1.048,0,0,0,1.07,1.042h.213v.2h-5.417v-.2h.236a1.045,1.045,0,0,0,1.048-1.026V74.445A1.025,1.025,0,0,0,1015,73.424h-.247v-.2Z" fill="#beac80"/>
    </g>
  </g>
</svg>
