<svg xmlns="http://www.w3.org/2000/svg" width="14.068" height="16" viewBox="0 0 14.068 16">
  <g id="Group_141" data-name="Group 141" transform="translate(-1793.444 -52.924)">
    <path id="Path_125" data-name="Path 125" d="M1793.789,68.924a.6.6,0,0,1-.345-.645,6.168,6.168,0,0,1,5.072-5.886,7.661,7.661,0,0,1,1.071-.09c.629-.014,1.26-.022,1.889,0a6.174,6.174,0,0,1,6.034,5.991.587.587,0,0,1-.346.63Zm12.77-.944c-.04-.236-.071-.452-.114-.665a5.182,5.182,0,0,0-4.915-4.076c-.7-.009-1.406-.011-2.108,0a4.36,4.36,0,0,0-.913.1,5.116,5.116,0,0,0-3.922,3.669,9.505,9.505,0,0,0-.2.965Z" fill="#beac80"/>
    <path id="Path_126" data-name="Path 126" d="M1800.821,52.924c.319.069.646.112.956.211a4.208,4.208,0,1,1-1.764-.184,1.037,1.037,0,0,0,.12-.027Zm-.351,7.5a3.282,3.282,0,1,0-3.274-3.285A3.288,3.288,0,0,0,1800.47,60.424Z" fill="#beac80"/>
  </g>
</svg>
