<svg xmlns="http://www.w3.org/2000/svg" width="14" height="13.997" viewBox="0 0 14 13.997">
  <g id="Group_36" data-name="Group 36" transform="translate(-4839.205 -726.341)">
    <path id="Path_30" data-name="Path 30" d="M4845.767,726.341h.875c.035.007.07.017.1.022.32.047.642.077.958.143a7,7,0,0,1,5.468,6.156,6.72,6.72,0,0,1-.771,3.921,6.838,6.838,0,0,1-6.057,3.75,6.576,6.576,0,0,1-3.989-1.149,6.88,6.88,0,0,1-3.042-4.624c-.048-.258-.073-.521-.109-.782V732.9c.008-.04.017-.079.023-.119.048-.319.078-.642.144-.957a7,7,0,0,1,5.613-5.378C4845.245,726.407,4845.506,726.377,4845.767,726.341Zm.437.979a6.021,6.021,0,1,0,6.021,6.024A6.023,6.023,0,0,0,4846.2,727.32Z" fill="#7d7d7f"/>
    <path id="Path_31" data-name="Path 31" d="M4846.009,729.827a2.694,2.694,0,0,1,1.2.228,1.42,1.42,0,0,1,.673,2.05,2.968,2.968,0,0,1-.778.888c-.081.066-.162.133-.239.2a.981.981,0,0,0-.323.714c0,.091,0,.182-.006.273a.327.327,0,0,1-.249.335.593.593,0,0,1-.092.025c-.51.088-.695-.063-.706-.578a1.717,1.717,0,0,1,.692-1.485,5.76,5.76,0,0,0,.451-.376.812.812,0,0,0,.29-.6.549.549,0,0,0-.313-.52,1.046,1.046,0,0,0-1.354.325c-.195.279-.377.34-.647.217a.524.524,0,0,1-.271-.668,1.364,1.364,0,0,1,.839-.858A2.189,2.189,0,0,1,4846.009,729.827Z" fill="#7d7d7f"/>
    <path id="Path_32" data-name="Path 32" d="M4846.7,735.9a.7.7,0,1,1-1.4.019.7.7,0,1,1,1.4-.019Z" fill="#7d7d7f"/>
  </g>
</svg>
