<svg xmlns="http://www.w3.org/2000/svg" width="26.448" height="19.24" viewBox="0 0 26.448 19.24">
  <g id="Group_132" data-name="Group 132" transform="translate(-1415.944 -1406.206)">
    <g id="Group_130" data-name="Group 130">
      <path id="Path_110" data-name="Path 110" d="M1429.168,1425.446c-.791,0-7.783-.015-9.761-.544a4.194,4.194,0,0,1-2.913-2.878,34.922,34.922,0,0,1-.024-12.2,4.2,4.2,0,0,1,2.922-3.068c1.993-.534,8.985-.549,9.776-.549s7.771.014,9.738.494a4.188,4.188,0,0,1,2.945,3.007c.007.024.012.048.017.072a34.9,34.9,0,0,1,0,12.05,4.2,4.2,0,0,1-2.923,3.068C1436.952,1425.431,1429.959,1425.446,1429.168,1425.446Zm0-17.036a64.634,64.634,0,0,0-9.192.469,1.963,1.963,0,0,0-1.353,1.407,33.044,33.044,0,0,0,.015,11.24,1.957,1.957,0,0,0,1.345,1.248,90.34,90.34,0,0,0,18.376,0,1.962,1.962,0,0,0,1.355-1.407,32.786,32.786,0,0,0-.008-11.156,1.969,1.969,0,0,0-1.361-1.379A75.28,75.28,0,0,0,1429.168,1408.41Z" fill="#8d8d91"/>
    </g>
    <g id="Group_131" data-name="Group 131">
      <path id="Path_111" data-name="Path 111" d="M1427.428,1419.455a.844.844,0,0,1-.845-.844v-5.526a.845.845,0,0,1,1.263-.734l4.858,2.763a.845.845,0,0,1,0,1.469l-4.858,2.762A.853.853,0,0,1,1427.428,1419.455Z" fill="#8d8d91"/>
    </g>
  </g>
</svg>
