<svg xmlns="http://www.w3.org/2000/svg" width="84.282" height="20" viewBox="0 0 84.282 20">
  <g id="Group_38" data-name="Group 38" transform="translate(-4484.715 -855.079)">
    <path id="Path_38" data-name="Path 38" d="M4525.408,860.907a4.564,4.564,0,0,1,3.49-1.792,5.966,5.966,0,0,1,5.89,6.1,5.87,5.87,0,0,1-5.74,6.1,4.205,4.205,0,0,1-3.4-1.562h-.044V874.9a.116.116,0,0,1-.117.117h-2.934a.122.122,0,0,1-.084-.034.118.118,0,0,1-.035-.083V859.23a.119.119,0,0,1,.119-.12h2.742a.124.124,0,0,1,.083.036.118.118,0,0,1,.034.084Zm3.24,7.419a3.111,3.111,0,0,1-3.209-3.074,3.11,3.11,0,0,1,3.2-3.144,3.059,3.059,0,0,1,3.018,3.1h0a3.07,3.07,0,0,1-3.012,3.116Z" fill="#5a31f4" fill-rule="evenodd"/>
    <path id="Path_39" data-name="Path 39" d="M4506.361,861.459a4.03,4.03,0,0,0-3.9-2.34,3.883,3.883,0,0,0-3.049,1.567l-.07.087V855.2a.123.123,0,0,0-.122-.122h-2.737a.121.121,0,0,0-.084.037.117.117,0,0,0-.035.085v15.982a.119.119,0,0,0,.119.119h2.932a.123.123,0,0,0,.085-.034.129.129,0,0,0,.036-.085v-6.814a2.152,2.152,0,0,1,2.3-2.263c1.545,0,1.936,1.271,1.936,2.567v6.51a.12.12,0,0,0,.119.119h2.925a.122.122,0,0,0,.085-.034.12.12,0,0,0,.036-.085v-6.9a5.064,5.064,0,0,0-.031-.693,6.086,6.086,0,0,0-.543-2.133Z" fill="#5a31f4"/>
    <path id="Path_40" data-name="Path 40" d="M4491.723,863.828s-1.492-.351-2.042-.492-1.51-.442-1.51-1.168.775-.958,1.561-.958,1.66.19,1.729,1.061a.122.122,0,0,0,.04.082.125.125,0,0,0,.086.033l2.889-.011a.123.123,0,0,0,.05-.01.14.14,0,0,0,.041-.029.127.127,0,0,0,.026-.043.117.117,0,0,0,.007-.05c-.179-2.791-2.627-3.788-4.885-3.788-2.678,0-4.636,1.766-4.636,3.713,0,1.421.4,2.755,3.56,3.682.555.161,1.307.371,1.965.554.79.221,1.217.554,1.217,1.079,0,.61-.884,1.034-1.751,1.034-1.256,0-2.148-.466-2.221-1.3a.126.126,0,0,0-.042-.079.123.123,0,0,0-.084-.031l-2.883.013a.12.12,0,0,0-.049.01.142.142,0,0,0-.041.028.124.124,0,0,0-.027.043.11.11,0,0,0-.008.049c.132,2.634,2.675,4.053,5.046,4.053,3.532,0,5.128-1.987,5.128-3.847C4494.893,866.578,4494.692,864.587,4491.723,863.828Z" fill="#5a31f4"/>
    <path id="Path_41" data-name="Path 41" d="M4513.748,858.426a8.16,8.16,0,0,0-5.194,1.673l-.034.022a.272.272,0,0,0-.081.36l1.081,1.863a.277.277,0,0,0,.309.128.269.269,0,0,0,.1-.055l.086-.07a5.8,5.8,0,0,1,3.651-1.276,3.856,3.856,0,0,1,3.042.944,4.653,4.653,0,0,1,1.363,3.4c0,2.465-1.453,4.015-3.786,4.046-1.923-.011-3.214-1.013-3.214-2.495a2.115,2.115,0,0,1,1.048-1.81.271.271,0,0,0,.082-.344l-.972-1.837a.281.281,0,0,0-.071-.085.287.287,0,0,0-.1-.052.269.269,0,0,0-.113-.009.273.273,0,0,0-.107.038,4.384,4.384,0,0,0-2.356,4.1,5.508,5.508,0,0,0,5.623,5.194h.371a6.422,6.422,0,0,0,6.4-6.622A6.985,6.985,0,0,0,4513.748,858.426Z" fill="#5a31f4"/>
    <path id="Path_42" data-name="Path 42" d="M4540.838,855.119h25.031a3.128,3.128,0,0,1,3.128,3.128v13.7a3.127,3.127,0,0,1-3.128,3.128h-25.031a3.128,3.128,0,0,1-3.128-3.128v-13.7A3.129,3.129,0,0,1,4540.838,855.119Zm5.616,10.854a3.657,3.657,0,0,0,0-7.313h-3.686a.166.166,0,0,0-.117.048.171.171,0,0,0-.049.118v10.117a.17.17,0,0,0,.049.116.167.167,0,0,0,.117.049h1.386a.164.164,0,0,0,.117-.048.167.167,0,0,0,.048-.117v-2.8a.168.168,0,0,1,.166-.166Zm-.106-5.777a2.125,2.125,0,0,1,0,4.239h-1.863a.163.163,0,0,1-.116-.048.166.166,0,0,1-.05-.116v-3.909a.166.166,0,0,1,.05-.116.168.168,0,0,1,.116-.05Zm4.1,6.972a1.968,1.968,0,0,1,.822-1.687,4.661,4.661,0,0,1,2.611-.662l1.313-.044v-.389c0-.775-.52-1.1-1.357-1.1s-1.364.295-1.488.779a.16.16,0,0,1-.159.115h-1.3a.168.168,0,0,1-.069-.014.164.164,0,0,1-.057-.042.149.149,0,0,1-.034-.062.153.153,0,0,1,0-.07c.194-1.148,1.143-2.02,3.168-2.02,2.15,0,2.924,1,2.924,2.91v4.057a.144.144,0,0,1-.012.064.165.165,0,0,1-.035.054.182.182,0,0,1-.054.037.174.174,0,0,1-.064.013h-1.309a.175.175,0,0,1-.064-.013.173.173,0,0,1-.09-.091.177.177,0,0,1-.012-.064v-.3a.121.121,0,0,0-.018-.076.124.124,0,0,0-.06-.05.13.13,0,0,0-.078,0,.123.123,0,0,0-.064.043,2.623,2.623,0,0,1-2.04.736C4551.432,869.287,4550.445,868.51,4550.445,867.168Zm4.746-.883v-.314l-1.7.089c-.9.046-1.42.419-1.42,1.046,0,.567.479.883,1.314.883a1.6,1.6,0,0,0,1.8-1.7Zm2.943,4.706v1.181a.171.171,0,0,0,.031.107.167.167,0,0,0,.091.065,2.452,2.452,0,0,0,.708.086,3.015,3.015,0,0,0,3.091-2.269l2.914-7.773a.171.171,0,0,0,.006-.077.176.176,0,0,0-.029-.073.163.163,0,0,0-.058-.051.173.173,0,0,0-.076-.019h-1.358a.158.158,0,0,0-.1.031.169.169,0,0,0-.061.084l-1.6,4.922a.169.169,0,0,1-.062.08.17.17,0,0,1-.193,0,.169.169,0,0,1-.062-.08l-1.85-4.936a.179.179,0,0,0-.062-.078.169.169,0,0,0-.095-.03h-1.325a.165.165,0,0,0-.075.019.17.17,0,0,0-.059.052.166.166,0,0,0-.029.072.163.163,0,0,0,.007.078l2.724,7a.164.164,0,0,1,0,.112l-.086.272a1.57,1.57,0,0,1-1.583,1.119,3.248,3.248,0,0,1-.607-.057.165.165,0,0,0-.073,0,.157.157,0,0,0-.065.034.154.154,0,0,0-.045.058A.161.161,0,0,0,4558.134,870.991Z" fill="#5a31f4" fill-rule="evenodd"/>
  </g>
</svg>
