<svg xmlns="http://www.w3.org/2000/svg" width="13.841" height="16" viewBox="0 0 13.841 16">
  <path id="Path_124" data-name="Path 124" d="M1773.736,52.924h.594c.231.057.469.1.692.174a2.944,2.944,0,0,1,1.96,2.727c0,.185,0,.37,0,.566h.192c.687,0,1.374,0,2.061,0a.466.466,0,0,1,.5.448c.075.677.145,1.355.216,2.033q.165,1.56.329,3.12t.327,3.121c.109,1.035.209,2.071.331,3.1a.592.592,0,0,1-.331.706h-13.156a.564.564,0,0,1-.325-.692c.032-.158.032-.321.049-.481q.308-2.9.614-5.8.267-2.529.532-5.059a.485.485,0,0,1,.554-.5h2.208c0-.2,0-.372,0-.549a2.954,2.954,0,0,1,2.179-2.816C1773.421,52.984,1773.579,52.958,1773.736,52.924Zm-5.619,15.036h11.836l-1.115-10.609h-1.855V57.5c0,.291,0,.583,0,.874a.477.477,0,1,1-.954.014c-.005-.073,0-.146,0-.219v-.816h-3.982v.183c0,.286.006.573,0,.859a.47.47,0,0,1-.466.47.475.475,0,0,1-.487-.466c-.005-.078,0-.156,0-.234v-.816h-1.855Zm7.907-11.576c0-.2.008-.39,0-.58a1.906,1.906,0,0,0-1.126-1.724,1.885,1.885,0,0,0-2.084.223,2.119,2.119,0,0,0-.753,2.081Z" transform="translate(-1767.111 -52.924)" fill="#beac80"/>
</svg>
