<svg xmlns="http://www.w3.org/2000/svg" width="14" height="18.656" viewBox="0 0 14 18.656">
  <g id="Group_35" data-name="Group 35" transform="translate(-4839.366 -622.36)">
    <g id="Group_34" data-name="Group 34">
      <path id="Path_28" data-name="Path 28" d="M4841.119,629.919c0-.074,0-.15,0-.225,0-.8-.02-1.6.019-2.4a5.24,5.24,0,0,1,10.4-.538,6.784,6.784,0,0,1,.068.982c.01.658,0,1.316,0,1.974v.194a5.478,5.478,0,0,1,.639.152,1.7,1.7,0,0,1,1.111,1.692c0,.871,0,1.742,0,2.613q0,2.409,0,4.818a1.682,1.682,0,0,1-.99,1.656,1.882,1.882,0,0,1-.764.17q-5.243.015-10.488.005a1.715,1.715,0,0,1-1.753-1.792c-.007-1.019,0-2.038,0-3.057,0-1.471,0-2.942,0-4.412a1.71,1.71,0,0,1,1.257-1.743C4840.775,629.968,4840.93,629.953,4841.119,629.919Zm5.247,1.186h-5.108c-.538,0-.722.182-.722.718q0,3.657,0,7.314c0,.521.193.712.713.712q5.118,0,10.236,0c.52,0,.713-.191.713-.712q0-3.666,0-7.333c0-.511-.192-.7-.7-.7Zm4.063-1.175a1.069,1.069,0,0,0,.015-.121c0-.8.018-1.6-.009-2.4a4.074,4.074,0,0,0-8.144.205c-.009.716,0,1.432,0,2.148a1.567,1.567,0,0,0,.015.168Z" fill="#7d7d7f"/>
      <path id="Path_29" data-name="Path 29" d="M4845.785,636.958c0-.18-.01-.361,0-.541.01-.138-.044-.2-.167-.252a1.738,1.738,0,0,1,.152-3.211,1.753,1.753,0,0,1,2.214.969,1.727,1.727,0,0,1-.915,2.259.183.183,0,0,0-.125.2c.005.367,0,.735,0,1.1a.582.582,0,1,1-1.162-.006C4845.783,637.307,4845.785,637.133,4845.785,636.958Zm.593-1.779a.544.544,0,0,0,.569-.589.58.58,0,1,0-1.161.023A.545.545,0,0,0,4846.378,635.179Z" fill="#7d7d7f"/>
    </g>
  </g>
</svg>
