<svg xmlns="http://www.w3.org/2000/svg" width="82.55" height="20" viewBox="0 0 82.55 20">
  <g id="Group_37" data-name="Group 37" transform="translate(-4484.714 -799.606)">
    <path id="Path_33" data-name="Path 33" d="M4491.917,804.313h5.642c3.028,0,4.169,1.533,3.993,3.789-.291,3.719-2.539,5.776-5.522,5.776h-1.506c-.409,0-.684.27-.795,1.005l-.646,4.263c-.042.277-.188.44-.407.46h-3.537c-.333,0-.451-.255-.364-.806l2.16-13.678A.862.862,0,0,1,4491.917,804.313Z" fill="#009de2" fill-rule="evenodd"/>
    <path id="Path_34" data-name="Path 34" d="M4516.407,804.06c1.9,0,3.66,1.032,3.419,3.606-.285,3.051-1.929,4.75-4.515,4.757h-2.256c-.325,0-.482.264-.567.809l-.436,2.777c-.065.419-.28.626-.6.626h-2.1c-.335,0-.452-.214-.377-.693l1.737-11.131c.085-.547.295-.751.666-.751Zm-3.422,5.958h1.711c1.07-.041,1.782-.782,1.853-2.119a1.292,1.292,0,0,0-1.4-1.412l-1.611.007-.552,3.523Zm12.553,5.764c.192-.174.388-.266.359-.05l-.068.516c-.036.268.071.412.322.412h1.867c.314,0,.467-.127.545-.613l1.15-7.22c.058-.362-.03-.54-.306-.54h-2.052c-.185,0-.274.1-.323.386l-.076.445c-.04.232-.146.272-.244.038-.349-.824-1.237-1.194-2.483-1.168a5.134,5.134,0,0,0-5.027,5.046,3.469,3.469,0,0,0,3.439,3.869,3.712,3.712,0,0,0,2.9-1.121Zm-1.562-1.109a1.875,1.875,0,0,1-1.923-2.2,2.679,2.679,0,0,1,2.578-2.2,1.874,1.874,0,0,1,1.922,2.2,2.681,2.681,0,0,1-2.577,2.2Zm9.392-6.41h-1.885c-.391,0-.55.286-.426.65l2.35,6.882-2.316,3.273c-.193.274-.044.523.229.523h2.128a.652.652,0,0,0,.632-.31l7.228-10.368c.222-.319.117-.653-.248-.654l-2.011,0c-.346,0-.484.136-.682.424l-3.015,4.374-1.341-4.382A.581.581,0,0,0,4533.368,808.263Z" fill="#113984" fill-rule="evenodd"/>
    <path id="Path_35" data-name="Path 35" d="M4548.83,804.06c1.9,0,3.659,1.032,3.419,3.606-.285,3.051-1.929,4.75-4.516,4.757h-2.256c-.325,0-.481.264-.567.809l-.435,2.777c-.066.419-.281.626-.6.626h-2.1c-.335,0-.452-.214-.378-.693l1.737-11.131c.086-.547.3-.751.666-.751Zm-3.423,5.958h1.712c1.069-.041,1.781-.782,1.852-2.119a1.292,1.292,0,0,0-1.4-1.412l-1.611.007-.552,3.523Zm12.553,5.764c.192-.174.388-.266.36-.05l-.069.516c-.035.268.072.412.323.412h1.866c.314,0,.468-.127.545-.613l1.15-7.22c.058-.362-.03-.54-.3-.54h-2.052c-.185,0-.275.1-.323.386l-.077.445c-.039.232-.145.272-.244.038-.349-.824-1.237-1.194-2.482-1.168a5.136,5.136,0,0,0-5.028,5.046,3.47,3.47,0,0,0,3.439,3.869,3.712,3.712,0,0,0,2.9-1.121Zm-1.562-1.109a1.876,1.876,0,0,1-1.923-2.2,2.681,2.681,0,0,1,2.578-2.2,1.875,1.875,0,0,1,1.923,2.2,2.682,2.682,0,0,1-2.578,2.2Zm8.61,2h-2.154a.254.254,0,0,1-.264-.3l1.894-11.992a.372.372,0,0,1,.359-.3H4567a.254.254,0,0,1,.264.3l-1.9,11.992A.371.371,0,0,1,4565.008,816.673Z" fill="#009de2" fill-rule="evenodd"/>
    <path id="Path_36" data-name="Path 36" d="M4488.39,799.606h5.647c1.591,0,3.477.051,4.739,1.164a3.82,3.82,0,0,1,1.183,3.2c-.346,4.312-2.925,6.727-6.384,6.727h-2.785c-.474,0-.788.314-.922,1.165l-.777,4.944c-.051.321-.19.51-.444.533h-3.478c-.386,0-.524-.3-.423-.935l2.5-15.86A1,1,0,0,1,4488.39,799.606Z" fill="#113984" fill-rule="evenodd"/>
    <path id="Path_37" data-name="Path 37" d="M4489.949,811.364l.986-6.242a.862.862,0,0,1,.982-.809h5.642a5.523,5.523,0,0,1,2.28.414c-.567,3.838-3.049,5.97-6.3,5.97h-2.785A.818.818,0,0,0,4489.949,811.364Z" fill="#172c70" fill-rule="evenodd"/>
  </g>
</svg>
