<svg xmlns="http://www.w3.org/2000/svg" width="19.239" height="19.24" viewBox="0 0 19.239 19.24">
  <g id="Group_129" data-name="Group 129" transform="translate(-1354.966 -1406.491)">
    <path id="Path_107" data-name="Path 107" d="M1364.585,1411.107a4.965,4.965,0,1,0,4.966,4.965A4.975,4.975,0,0,0,1364.585,1411.107Zm0,8.146a3.181,3.181,0,1,1,3.181-3.181A3.195,3.195,0,0,1,1364.585,1419.253Z" fill="#8d8d91"/>
    <circle id="Ellipse_15" data-name="Ellipse 15" cx="1.125" cy="1.125" r="1.125" transform="translate(1368.62 1409.866)" fill="#8d8d91"/>
    <path id="Path_108" data-name="Path 108" d="M1372.654,1408.081a5.527,5.527,0,0,0-4.073-1.59h-7.991a5.313,5.313,0,0,0-5.624,5.624v7.952a5.583,5.583,0,0,0,1.629,4.151,5.662,5.662,0,0,0,4.034,1.513h7.913a5.728,5.728,0,0,0,4.073-1.513,5.556,5.556,0,0,0,1.59-4.112v-7.991A5.563,5.563,0,0,0,1372.654,1408.081Zm-.155,12.025a3.792,3.792,0,0,1-1.125,2.832,4.011,4.011,0,0,1-2.832,1.008h-7.913a4.011,4.011,0,0,1-2.832-1.008,3.9,3.9,0,0,1-1.047-2.871v-7.952a3.867,3.867,0,0,1,1.047-2.831,3.944,3.944,0,0,1,2.832-1.009h7.991a3.864,3.864,0,0,1,2.831,1.048,4,4,0,0,1,1.048,2.792v7.991Z" fill="#8d8d91"/>
  </g>
</svg>
