<svg xmlns="http://www.w3.org/2000/svg" width="23.674" height="19.24" viewBox="0 0 23.674 19.24">
  <path id="Path_109" data-name="Path 109" d="M1408.2,1408.561a9.645,9.645,0,0,1-2.79.765,4.878,4.878,0,0,0,2.136-2.686,9.751,9.751,0,0,1-3.084,1.178,4.863,4.863,0,0,0-8.278,4.43,13.791,13.791,0,0,1-10.011-5.075,4.865,4.865,0,0,0,1.5,6.485,4.831,4.831,0,0,1-2.2-.607v.061a4.86,4.86,0,0,0,3.9,4.763,4.9,4.9,0,0,1-2.193.084,4.863,4.863,0,0,0,4.536,3.372,9.8,9.8,0,0,1-7.189,2.013,13.815,13.815,0,0,0,21.264-11.639c0-.21-.006-.42-.015-.629A9.847,9.847,0,0,0,1408.2,1408.561Z" transform="translate(-1384.523 -1406.284)" fill="#8d8d91"/>
</svg>
