<svg xmlns="http://www.w3.org/2000/svg" width="159.117" height="145.692" viewBox="0 0 159.117 145.692">
  <g id="Group_114" data-name="Group 114" transform="translate(-4305.809 -57.898)">
    <g id="Group_113" data-name="Group 113">
      <path id="Path_328" data-name="Path 328" d="M4397.162,80.018,4395.8,82.6a53.482,53.482,0,0,0-10.316-1.343h-.058a53.962,53.962,0,0,0-10.344,1.351l-1.357-2.574a55.785,55.785,0,0,1,11.589-1.6l.056,0h.171l.054,0c.465.019.921.041,1.377.07.269.012.534.031.8.05a53.829,53.829,0,0,1,9.39,1.469" fill="#818472"/>
      <path id="Path_329" data-name="Path 329" d="M4431.374,100.764a29.387,29.387,0,0,1,3-9.517,63.413,63.413,0,0,1-20.576,0,54.4,54.4,0,0,1,7.887,8.738c1.777,2.418,3.41,4.984,4.986,7.473,1.692,2.659,4.305,6.357,7.7,10.771a30.445,30.445,0,0,1-3-17.465m-2.581-.347a31.35,31.35,0,0,0-.271,5.09c-1.427-2.243-3.02-4.729-4.739-7.065-1.006-1.361-2.016-2.639-3.041-3.836,1.112.06,2.231.086,3.345.086h.135q2.989-.006,5.987-.283a31.119,31.119,0,0,0-1.416,6.008" fill="#818472"/>
      <path id="Path_330" data-name="Path 330" d="M4336.543,118.231c3.4-4.416,6.012-8.114,7.7-10.775,1.574-2.486,3.21-5.051,4.987-7.471a54.636,54.636,0,0,1,7.886-8.738,63.413,63.413,0,0,1-20.576,0,29.37,29.37,0,0,1,3,9.516,30.424,30.424,0,0,1-3,17.468m4.168-23.822c1.994.182,4,.277,5.986.281h.132c1.118,0,2.236-.024,3.345-.086q-1.533,1.8-3.039,3.838c-1.719,2.336-3.314,4.822-4.74,7.065a30.829,30.829,0,0,0-.267-5.089,31.513,31.513,0,0,0-1.417-6.009" fill="#818472"/>
      <path id="Path_331" data-name="Path 331" d="M4434.375,124c-3.394,4.416-6.011,8.115-7.7,10.774-1.574,2.485-3.209,5.053-4.986,7.471a54.6,54.6,0,0,1-7.887,8.74,63.117,63.117,0,0,1,20.576,0,29.4,29.4,0,0,1-3-9.517,30.438,30.438,0,0,1,3-17.468m-4.166,23.821c-2-.184-4-.279-5.987-.283h-.132c-1.119,0-2.236.027-3.346.086q1.534-1.8,3.039-3.834c1.719-2.336,3.315-4.822,4.741-7.065a31.086,31.086,0,0,0,.267,5.088,31.432,31.432,0,0,0,1.418,6.008" fill="#818472"/>
      <path id="Path_332" data-name="Path 332" d="M4339.547,141.463a29.427,29.427,0,0,1-3,9.519,63.265,63.265,0,0,1,20.576,0,54.652,54.652,0,0,1-7.884-8.742c-1.779-2.416-3.413-4.984-4.989-7.469-1.691-2.659-4.3-6.358-7.7-10.774a30.454,30.454,0,0,1,3,17.466m2.578.347a30.853,30.853,0,0,0,.273-5.09c1.426,2.245,3.018,4.731,4.737,7.067q1.51,2.041,3.041,3.834c-1.111-.059-2.231-.086-3.344-.086h-.135c-1.99,0-3.992.1-5.986.283a31.132,31.132,0,0,0,1.414-6.008" fill="#818472"/>
      <path id="Path_333" data-name="Path 333" d="M4371.342,67.8c.426.191.846.381,1.268.58-.022,0-.969,3.3.89,5.37a5.384,5.384,0,0,1-2.158-5.95" fill="#818472"/>
      <path id="Path_334" data-name="Path 334" d="M4405.871,64.88c-1.512,2.245-2.953,4.538-4.319,6.859-1.453,2.538-2.609,4.692-3.893,7.31-3.807-1.611-7.792-2-12.214-2a37.736,37.736,0,0,0-12.218,1.983c-1.28-2.6-2.446-4.764-3.885-7.291-1.377-2.321-2.811-4.614-4.319-6.859,2.854,1.154,5.788,2.566,5.788,2.574l-.016.021c-1.139,2.094-.014,4.744,1.82,6.014a6.76,6.76,0,0,0,5,1.394,5.647,5.647,0,0,0,1.233-.281l.023-.008a6.165,6.165,0,0,0,1.166-.556l.227-.178a4.286,4.286,0,0,0,.761-.852,5.028,5.028,0,0,0,.616-1.3,4.677,4.677,0,0,0,.244-1.606,3.329,3.329,0,0,0-.106-.838l-.046-.207-.068-.2-.036-.1-.021-.049-.012-.025-.007-.008v-.008l-.106-.228-.094-.19-.117-.191-.267-.373a3.354,3.354,0,0,0-.647-.631,2.755,2.755,0,0,0-1.647-.564l-.447.041-.225.043-.064.013h0l-.008.008-.029.006-.117.041-.179.068-.183.09-.336.247a1.976,1.976,0,0,0-.474.638,1.907,1.907,0,0,0-.186.742l.022.377.087.352a1.287,1.287,0,0,0,.374.52,1.682,1.682,0,0,0,.558.3,1.709,1.709,0,0,0,.613.048l.145-.028.035-.005h.022l.082-.029.041-.014.029-.008.045-.018.109-.062.352-.3v-.007a1.162,1.162,0,0,0,.213-.638l-.01-.185-.011-.063v-.014l.068-.1.062.007.034.049.014.039.007.014.006.016.049.211.007.056a1.339,1.339,0,0,1-.138.755,1.555,1.555,0,0,1-.4.48l-.137.107-.088.052-.076.04-.083.035-.087.039-.189.062a2.179,2.179,0,0,1-1.721-.245,2.1,2.1,0,0,1-.72-.736,2.579,2.579,0,0,1-.209-.489,3.292,3.292,0,0,1-.116-.533,2.974,2.974,0,0,1,.708-2.266,3.183,3.183,0,0,1,.494-.476l.294-.2.325-.178a4.567,4.567,0,0,1,1.359-.4,4.389,4.389,0,0,1,1.469.064,4.69,4.69,0,0,1,1.361.506,5.839,5.839,0,0,1,1.111.838,6.351,6.351,0,0,1,.452.5l.2.265.192.284.155.26.168.316.129.308.116.317.111.377a15.944,15.944,0,0,0,.707-2c-.757-.926-1.792-1.5-2.1-2.854-.393-1.752.631-3.27,2.792-6.3,2.1,3.056,3.1,4.587,2.685,6.329-.328,1.333-1.332,1.9-2.1,2.789v.006a16.676,16.676,0,0,0,.629,1.791l.048-.185.116-.323.131-.313.157-.333.164-.268.189-.288.205-.28a4.583,4.583,0,0,1,.465-.515,5.583,5.583,0,0,1,1.14-.88,4.832,4.832,0,0,1,1.416-.542,4.5,4.5,0,0,1,1.543-.075,4.409,4.409,0,0,1,.744.152l.35.114.078.037.063.019.043.014.15.074.352.188.314.213a3.5,3.5,0,0,1,.529.5,3.114,3.114,0,0,1,.769,2.426,2.59,2.59,0,0,1-.133.567l-.1.268-.037.076-.026.048-.076.131a2.193,2.193,0,0,1-.791.8,2.322,2.322,0,0,1-.959.316,2.38,2.38,0,0,1-.9-.091l-.2-.068-.108-.048-.076-.036-.038-.017-.05-.031-.087-.059-.153-.11a1.62,1.62,0,0,1-.389-.538,1.358,1.358,0,0,1-.09-.856l.053-.172.008-.015.007-.018.03-.069.116-.049.052.075-.007.027-.013.063-.025.185a1.184,1.184,0,0,0,.072.487l.1.19.343.366.126.069.054.027.069.028.082.027.07.021.157.026a1.671,1.671,0,0,0,1.312-.328,1.569,1.569,0,0,0,.454-.581l.112-.386.031-.413a2.119,2.119,0,0,0-.72-1.544l-.372-.27-.207-.1-.206-.08-.122-.043-.042-.007-.015-.007-.059-.012-.24-.05-.487-.04a2.941,2.941,0,0,0-1.773.612,3.9,3.9,0,0,0-1.166,1.461l-.1.226v.008l-.01.015-.007.018-.018.055-.045.1-.067.207-.05.219a5.5,5.5,0,0,0-.1.866,5.178,5.178,0,0,0,.269,1.656,5.1,5.1,0,0,0,.668,1.3,3.956,3.956,0,0,0,.691.754l.009.008a6.734,6.734,0,0,0,1.476.768l.06.022a5.69,5.69,0,0,0,1.243.281,6.772,6.772,0,0,0,5-1.394c1.834-1.27,2.954-3.92,1.822-6.014l-.019-.021c0-.008,2.934-1.42,5.791-2.574" fill="#818472"/>
      <path id="Path_335" data-name="Path 335" d="M4399.549,67.8c-.428.191-.85.381-1.268.58.021,0,.969,3.3-.891,5.37a5.387,5.387,0,0,0,2.159-5.95" fill="#818472"/>
      <path id="Path_336" data-name="Path 336" d="M4402.588,91.63a8.647,8.647,0,0,0-7.377,5.014,20.916,20.916,0,0,0-1.152,2.589l-.014.025c-.506,1.227-.971,2.507-1.4,3.828v0a63.347,63.347,0,0,0-2.451,10.975l-4.088-4.089-.658-.658-.658.658-4.075,4.074a63.728,63.728,0,0,0-2.448-10.953c-.416-1.306-.879-2.574-1.38-3.792a21.857,21.857,0,0,0-1.187-2.674,8.654,8.654,0,0,0-7.374-5,12.782,12.782,0,0,1,2.06-.434l.348-.043a13.488,13.488,0,0,1,1.546-.09h.168v0h6.645a1.366,1.366,0,0,1,.577.141c1.855.865,3.716,5.478,5.573,5.478,2.022,0,4.1-5.482,6.131-5.615l.074,0h6.2l.15.032c.283-.02.56-.032.838-.032l.4.008.4.022c.261.013.507.034.748.06l.339.043c.34.047.647.1.913.151l.255.056.118.026.213.049c.359.089.564.156.564.156" fill="#818472"/>
      <path id="Path_337" data-name="Path 337" d="M4376.984,172.267a2.925,2.925,0,0,1,.079,3.721l-.34.383-.146.125c-1.931,1.525-7.163-.389-7.9-2.891-.9-3.025-2.2-1.678-3.163-1.137a4.111,4.111,0,0,1-.923.508,2.878,2.878,0,0,1-1.789.1,40.45,40.45,0,0,0-5.733-1.752l-.209-.047a11.183,11.183,0,0,0-2.156-.3c-1.139,0-1.5.291-1.637.684l-.009.3.091.343.071.139.045.066.1.1.164.1.126.036.187,0,.263-.059.167-.062.223-.118.126-.078.052-.035.078-.057.05-.039-.034.342-.085.293-.056.131-.047.092-.111.164-.006.006-.057.064a1.307,1.307,0,0,1-.851.412,1.723,1.723,0,0,1-1.848-1.773,2.345,2.345,0,0,1,.943-1.862l.291-.226.214-.131.218-.1.481-.172.222-.051.187-.031.139-.018.04,0,.039,0a38.111,38.111,0,0,1,5.031.227,16.314,16.314,0,0,0,2.916-.289,18.8,18.8,0,0,0,5.037-2.26,12.673,12.673,0,0,0,4.072-4.152q1.208-2.034,2.295-4.258l.068.015.067.018a47.552,47.552,0,0,0,5.623,1.123,62.743,62.743,0,0,1-5.98,10.465,8.691,8.691,0,0,0-.409.816,3.455,3.455,0,0,0-.4,2.108,2.093,2.093,0,0,0,2.316,2.449,1.483,1.483,0,0,0,1.231-.906l.01-.035a1.931,1.931,0,0,0-.082-1.85l-.074-.068-.018-.01-.063-.039-.1-.035-.154-.022a.843.843,0,0,0-.515.145l-.169.363v.047l0,0,.012.137.008.044.014.047,0,0,.069.213.028.072.043.094.021.045.032.059a1.5,1.5,0,0,1-.458-.162.985.985,0,0,1-.519-.977,1.3,1.3,0,0,1,.476-.879l.232-.152.11-.049.108-.037a1.429,1.429,0,0,1,.622-.035,1.58,1.58,0,0,1,.988.537l.018.019" fill="#818472"/>
      <path id="Path_338" data-name="Path 338" d="M4419.219,172.037a1.727,1.727,0,0,1-1.851,1.773,1.315,1.315,0,0,1-.853-.412l-.059-.064,0-.006-.114-.164-.045-.092-.055-.131-.085-.293-.036-.338.05.035.081.057.051.035.124.078.225.118.167.062.259.059.192,0,.121-.036.166-.1.1-.106.043-.066.072-.139.089-.343-.008-.3c-.135-.393-.5-.686-1.638-.684a11.191,11.191,0,0,0-2.154.3l-.211.047a40.391,40.391,0,0,0-5.731,1.752,2.882,2.882,0,0,1-1.79-.1,4.252,4.252,0,0,1-.924-.508c-.959-.541-2.265-1.888-3.16,1.137-.734,2.5-5.967,4.418-7.9,2.891l-.144-.125-.344-.383a2.93,2.93,0,0,1,.082-3.721l.017-.019a1.594,1.594,0,0,1,.993-.537,1.406,1.406,0,0,1,.616.035l.112.037.107.049.233.152a1.3,1.3,0,0,1,.475.879.986.986,0,0,1-.518.977,1.531,1.531,0,0,1-.459.162l.029-.057.025-.047.043-.094.03-.072.066-.213,0,0,.012-.047.008-.044.013-.137,0,0v-.047l-.168-.363a.84.84,0,0,0-.517-.145l-.151.022-.095.035-.069.039-.01.01-.077.068a1.934,1.934,0,0,0-.083,1.852l.012.033a1.476,1.476,0,0,0,1.226.906c1.757.125,2.287-1.2,2.321-2.449a3.111,3.111,0,0,0-.4-2.108,8.971,8.971,0,0,0-.412-.816,61.771,61.771,0,0,1-5.247-8.9h0c-.1-.215-.208-.432-.309-.651-.146-.3-.288-.6-.426-.914-.1-.232-.213-.467-.314-.705s-.209-.473-.31-.711c-.153-.344-.3-.691-.44-1.043-.1-.232-.2-.476-.3-.715s-.186-.476-.283-.717a85.309,85.309,0,0,1-4.221-14.759,84.5,84.5,0,0,1-4.221,14.759l-.2-.021a33.928,33.928,0,0,1-5.5-1.039,78.752,78.752,0,0,0,5.344-21.184c.189-1.7.332-3.383.411-5.048.029-.419.042-.841.058-1.257.041-1.041.06-2.075.06-3.094,0-.448,0-.89-.015-1.333-.016-1.244-.065-2.474-.148-3.68l4.21-4.209,4.219,4.223q-.119,1.8-.145,3.649c-.011.444-.013.885-.013,1.333,0,1.022.015,2.054.058,3.1.012.417.03.838.055,1.258.087,1.672.229,3.357.412,5.063a78.771,78.771,0,0,0,5.35,21.184c.09.234.192.463.287.695s.2.459.3.69c.144.349.3.693.464,1.041.1.232.209.457.315.683s.221.455.33.686c.151.3.3.607.455.908.123.248.248.492.377.734l.024.045q.7,1.321,1.441,2.571a12.664,12.664,0,0,0,4.074,4.152,18.765,18.765,0,0,0,5.034,2.26,16.494,16.494,0,0,0,2.915.291,37.832,37.832,0,0,1,5.035-.229l.036,0,.041,0,.14.018.185.031.222.051.481.172.218.107.211.129.295.226a2.368,2.368,0,0,1,.947,1.862" fill="#818472"/>
      <path id="Path_339" data-name="Path 339" d="M4401.68,121.821h-6.53l-4.861,4.862c-.033-1.048-.047-2.091-.029-3.124l2.48-2.481-7.287-7.29-4.982,4.982v0l-2.305,2.3,2.5,2.494c.014,1.032,0,2.077-.031,3.127l-4.877-4.878h-17.888l-.746.742-1.767,1.774-3.264-3.259,3.264-3.261,1.767,1.773.746.743h17.888l4.452-4.453.662-.665,4.586-4.585,4.6,4.6.658.661,4.441,4.443h6.519c0,.5,0,.99.011,1.488" fill="#818472"/>
      <path id="Path_340" data-name="Path 340" d="M4418.97,121.077l-3.259,3.258-1.775-1.77-.746-.746H4408.9c-.007-.5-.009-.992-.009-1.485h4.3l.746-.745,1.775-1.77Z" fill="#818472"/>
      <path id="Path_341" data-name="Path 341" d="M4406.537,153.972a38.342,38.342,0,0,1-9.051,3.846l0,0c-.111-.227-.22-.451-.32-.684-.193-.4-.377-.814-.553-1.234l-.224-.5.01,0a35.194,35.194,0,0,0,7.482-3.228c.591-.319,1.17-.655,1.745-1.02.328,1,.63,1.938.915,2.826" fill="#818472"/>
      <path id="Path_342" data-name="Path 342" d="M4390.244,159.248h0q-2.3.28-4.783.377-2.482-.1-4.784-.377c-.259-.032-.511-.059-.764-.1a46.067,46.067,0,0,1-5.751-1.137c-.238-.06-.48-.127-.715-.2a38.191,38.191,0,0,1-8.972-3.795c-.219-.129-.442-.26-.655-.394a38.887,38.887,0,0,1-4.8-3.477c-.207-.168-.408-.344-.612-.525a52.864,52.864,0,0,1-7.671-8.491c-4.887-6.632-8.567-14.333-14.374-20.023,5.807-5.688,9.487-13.39,14.374-20.024a52.99,52.99,0,0,1,7.706-8.527c.161.527.307,1.044.446,1.552l.012.043,0,.01.01.029q.235.838.443,1.7a32.8,32.8,0,0,0-3.264,3.95l-.14.2a34.69,34.69,0,0,0-2.823,4.539,36.076,36.076,0,0,0-3.891,12.6l-3.9,3.931,3.9,3.935a36.1,36.1,0,0,0,3.891,12.6,34.734,34.734,0,0,0,2.823,4.537l.14.2a32.592,32.592,0,0,0,3.239,3.92c.2.213.4.422.614.621a30.736,30.736,0,0,0,4.794,3.866c.219.142.432.279.651.414.543.344,1.1.662,1.654.961a34.942,34.942,0,0,0,7.494,3.23c.235.076.475.143.713.205a34.831,34.831,0,0,0,5.709,1.084c.252.026.506.051.76.074.975.079,1.957.118,2.951.118.219,0,.441,0,.661-.006l.13.006.131-.006c.22,0,.442.006.66.006,1,0,1.975-.039,2.945-.118h0c.1.241.2.487.3.727.147.355.294.709.443,1.059.1.238.2.468.305.7" fill="#818472"/>
      <path id="Path_343" data-name="Path 343" d="M4434.562,121.113l-.187.188c-5.705,5.666-9.353,13.275-14.189,19.835a52.662,52.662,0,0,1-7.588,8.418c-.32-1.017-.629-2.129-.917-3.336a34.223,34.223,0,0,0,3.153-3.834l.135-.2a34.189,34.189,0,0,0,2.824-4.539,35.946,35.946,0,0,0,3.891-12.6l3.894-3.933-3.894-3.931a36,36,0,0,0-3.891-12.6,34.558,34.558,0,0,0-2.824-4.537l-.135-.2a33.65,33.65,0,0,0-3.187-3.869c-.2-.209-.4-.415-.606-.615a30.741,30.741,0,0,0-4.657-3.791c-.211-.144-.429-.285-.65-.422-.606-.387-1.23-.746-1.859-1.089a35.135,35.135,0,0,0-17.623-4.71c-.22,0-.442,0-.662.006l-.131-.006-.13.006c-.22,0-.442-.006-.661-.006a35.162,35.162,0,0,0-17.627,4.71c-.6.323-1.187.669-1.769,1.035-.3-.954-.62-1.888-.963-2.792,5.824-3.449,12.666-5.372,21.15-5.7,8.527.327,15.4,2.271,21.239,5.752.216.127.434.26.65.395a38.736,38.736,0,0,1,4.6,3.361c.207.169.414.348.614.525a52.82,52.82,0,0,1,7.625,8.454c4.836,6.562,8.484,14.167,14.189,19.837l.187.185" fill="#818472"/>
      <path id="Path_344" data-name="Path 344" d="M4363.587,154.355c-.071.235-.15.469-.218.7-.09.286-.176.565-.263.84-.539,1.819-1.074,4.028-1.655,5.7-.113.324-.224.628-.343.9-.6,1.633-2.586.752-4.754-.07a31.783,31.783,0,0,1-6.166-2.715,7.084,7.084,0,0,1-1.719-1.608,2.209,2.209,0,0,1,2.082-3.74,1.717,1.717,0,0,1,1.562,1.613,1.56,1.56,0,0,0-1.175.309,1.025,1.025,0,0,0,.031,1.285,2.44,2.44,0,0,0,1.319.725,2.116,2.116,0,0,0,1.249.008,2.956,2.956,0,0,0,.615-.262l.391-.272.2-.152.29-.248.147-.139.145-.142.159-.162.131-.145.147-.168.142-.17.29-.365.142-.2.142-.207.249-.381c.1-.17.209-.34.312-.518.092-.16.184-.328.281-.5.133-.257.272-.535.407-.82l.134-.295.131-.3.135-.312.132-.32.05-.125,0-.006c.119-.289.226-.586.341-.9l.1-.283h0a39.492,39.492,0,0,0,4.829,3.453" fill="#818472"/>
      <path id="Path_345" data-name="Path 345" d="M4368.592,122.565c-.01.449-.018.9-.033,1.352l-.014.411c-.012.175-.014.35-.02.526-.009.294-.021.583-.035.876q-.023.555-.053,1.114v.018c-.021.332-.038.666-.061,1-.022.407-.047.811-.079,1.22-.029.432-.063.86-.1,1.288-.018.214-.036.427-.056.639-.034.4-.073.793-.108,1.187-.034.372-.07.745-.11,1.113-.045.432-.095.862-.142,1.289-.045.383-.092.766-.138,1.151-.026.22-.057.439-.086.656-.043.348-.09.693-.137,1.037-.061.41-.117.82-.18,1.229l-.052.339c-.042.284-.084.567-.129.85-.045.26-.088.522-.131.781-.054.35-.115.7-.18,1.049s-.126.723-.193,1.078c-.108.578-.218,1.155-.334,1.725-.059.3-.119.594-.183.889-.085.406-.171.81-.261,1.21-.074.34-.152.674-.228,1.008s-.153.653-.233.977c-.06.244-.118.49-.183.736s-.121.488-.18.729a30.723,30.723,0,0,1-4.808-3.965l.1-.449c.04-.168.079-.336.114-.508l.021-.094.02-.072v-.01a121.4,121.4,0,0,0,2.159-15.862c.031-.409.056-.817.083-1.223.018-.332.036-.66.053-.982.021-.385.039-.764.059-1.144.014-.292.027-.586.033-.876.008-.176.017-.35.019-.526l.015-.408c.014-.455.025-.91.033-1.359Z" fill="#818472"/>
      <path id="Path_346" data-name="Path 346" d="M4362.356,85.468c.126.283.248.57.373.861.1.249.209.5.312.758l.094.234.119.315.07.173.065.178c.117.295.222.568.272.708l0,.006c.067.186.137.374.206.562s.144.406.214.613c.1.3.209.609.31.913.026.087.087.286.157.507l.067.218c.1.308.2.618.236.741l.044.154c.057.18.112.367.165.554s.1.364.155.546c.072.248.143.5.209.748.063.226.122.457.182.683q.108.393.2.783c.076.3.15.6.22.9.078.33.157.66.231,1,.056.254.115.505.169.766s.11.513.161.775c.113.534.217,1.078.317,1.625.052.275.1.551.151.826.053.313.11.625.159.938.065.4.129.807.193,1.212s.117.819.178,1.231q.24,1.719.424,3.5c.034.3.063.6.09.9.061.593.111,1.2.158,1.8.024.3.049.608.067.912.013.177.023.357.034.536s.024.357.036.536c.031.507.06,1.028.085,1.543l.011.231c.009.283.021.57.031.856.014.307.025.621.037.933.013.532.029,1.067.031,1.6.007.373.015.744.015,1.119v.138h-5.732c0-.267,0-.536-.009-.8s-.005-.531-.01-.8c-.008-.449-.019-.9-.033-1.348l-.01-.356,0-.133c-.011-.336-.025-.671-.042-1-.008-.184-.014-.366-.022-.547l-.008-.135c-.013-.349-.039-.7-.056-1.037l-.018-.324q-.021-.344-.045-.684c-.015-.231-.029-.455-.047-.683l-.025-.368-.057-.691-.015-.168c-.016-.211-.033-.423-.056-.632-.034-.391-.069-.778-.112-1.165-.047-.5-.1-.992-.16-1.484l-.011-.1c-.056-.459-.111-.912-.171-1.366-.067-.528-.141-1.051-.22-1.573-.052-.369-.108-.732-.169-1.1-.09-.587-.193-1.17-.292-1.74l-.009-.045-.025-.14c-.062-.345-.127-.689-.192-1.033l-.045-.233c-.064-.319-.126-.64-.194-.96s-.134-.633-.2-.944-.141-.626-.211-.938-.146-.618-.222-.923l-.005-.023c-.085-.342-.287-1.129-.433-1.684-.048-.19-.1-.351-.122-.457l-.022-.062c-.083-.308-.166-.614-.258-.918l-.019-.075c-.09-.3-.179-.59-.266-.884l-.243-.768-.009-.025c-.092-.3-.185-.588-.283-.87-.957-2.8-2.274-5.115-6.274-8.643-.362-.317-.719-.61-1.081-.879-.175-.138-.357-.264-.534-.388-.358-.25-.711-.471-1.061-.67-.173-.1-.35-.2-.521-.287s-.342-.171-.512-.253h0c-.171-.083-.339-.158-.505-.229l-.494-.193c-.33-.119-.65-.223-.967-.305l-.46-.11a8.82,8.82,0,0,0-.88-.145l-.417-.034-.4-.012-.247,0-.04,0-.137.008-.213.017-.082.01-.191.027-.1.016h-.009l-.256.054-.272.075-.158.057-.152.058-.178.082-.2.111-.375.29-.147.154-.121.166a1.469,1.469,0,0,0-.215.9l.027.245.031.192.032.14.029.11.034.1.058.15.043.094.042.086.116.177.088.1.095.091.007,0,.1.076.121.064.243.09.175.033h.018l.191.012.274-.017.137-.024.132-.027.356-.1c.17-.059.334-.126.478-.191l.27-.136.111-.062.174-.1.078-.05.028-.017a2.856,2.856,0,0,1-2.829,2.822l-.252-.011-.19-.021h0l-.024,0-.1-.014-.189-.042-.254-.075-.114-.037-.113-.043-.029-.014-.209-.094-.207-.111-.275-.177-.264-.206-.244-.229-.114-.13-.109-.129-.18-.25-.025-.041-.085-.147-.009-.01-.062-.115-.014-.029-.074-.164-.033-.083-.1-.259,0-.012-.041-.146-.026-.1-.034-.151,0-.028-.025-.107,0-.045-.021-.184a3.711,3.711,0,0,1-.005-.756,4.828,4.828,0,0,1,2.275-3.612l.32-.215.328-.192h0l.449-.219.472-.183a7.105,7.105,0,0,1,.967-.25c.169-.028.335-.051.506-.071l.252-.02.222-.008.1,0h.041l.139,0a7.628,7.628,0,0,1,.841.045,14.9,14.9,0,0,1,9.214,4.8,3.1,3.1,0,0,0,2.247.946h.515a.685.685,0,0,0,.6-.434l.127-.23a2.139,2.139,0,0,1,.752-.742,2.572,2.572,0,0,1,1-.293,3.133,3.133,0,0,1,.446-.029l.157,0c.331-.014.719-.039,1.144-.082,4.722-.5,6.669-3.533,5.421-4.513a1.425,1.425,0,0,0-.852-.37c-.914,0-1.15,1.568-1.15,1.568a2.621,2.621,0,0,1-.438-.71,1.788,1.788,0,0,1-.111-.971l.029-.137.043-.135.075-.175.067-.123.079-.117.085-.115.093-.1.168-.155.166-.123.083-.054.077-.047,0,0,.049-.024.153-.072.034-.013.191-.072.221-.055.135-.024.113-.013.207-.013.447.046.222.059h0l.22.081a2.518,2.518,0,0,1,.838.612,3.086,3.086,0,0,1,.717,2.637,4.27,4.27,0,0,1-1.476,2.671,11.262,11.262,0,0,1-3.378,2.046,3.385,3.385,0,0,0-1.849,4.531" fill="#818472"/>
      <path id="Path_347" data-name="Path 347" d="M4429.04,84.121a2.689,2.689,0,0,1-1.817-.672l-.139-.139-.259-.309-.114-.178-.137-.256a3.47,3.47,0,0,1-.222-.586,4.485,4.485,0,0,1-.137-.683l.1.066.172.1.114.062.266.136c.149.067.31.133.482.192l.354.1a2.565,2.565,0,0,0,.544.066l.386-.045.243-.09.32-.232.185-.236.077-.145.116-.3a3.35,3.35,0,0,0,.128-.715c.092-1.19-1.154-2.032-3.094-2.032l-.412.012-.381.031c-.3.036-.626.086-.957.157l-.347.085a11.441,11.441,0,0,0-1.772.623c-.167.073-.336.151-.508.241l-.258.13c-.171.09-.347.188-.521.289-.351.2-.706.42-1.06.67-.18.123-.358.252-.537.388q-.537.4-1.079.88c-4,3.525-5.317,5.844-6.271,8.642-.1.282-.195.571-.285.868l-.032.1a39.8,39.8,0,0,0-4.583-3.305q.512-1.332,1.062-2.568a3.38,3.38,0,0,0-1.848-4.531,11.354,11.354,0,0,1-3.379-2.047,4.273,4.273,0,0,1-1.476-2.671,3.09,3.09,0,0,1,.72-2.639,2.476,2.476,0,0,1,.866-.621l.189-.071.2-.054.47-.049a2.241,2.241,0,0,1,1.6.668,1.712,1.712,0,0,1,.361,1.877,2.683,2.683,0,0,1-.439.711l-.019-.106-.02-.089-.045-.171-.038-.129-.144-.361,0,0-.076-.142-.133-.2,0,0-.052-.059a.808.808,0,0,0-.617-.3,1.408,1.408,0,0,0-.851.369c-1.247.981.7,4.013,5.42,4.514.424.045.813.067,1.14.082l.162,0a3.464,3.464,0,0,1,.446.03,2.56,2.56,0,0,1,1,.293,2.14,2.14,0,0,1,.753.742l.123.23a.692.692,0,0,0,.611.434h.512a3.107,3.107,0,0,0,2.246-.946,14.9,14.9,0,0,1,9.215-4.8,7.342,7.342,0,0,1,.838-.047,6.914,6.914,0,0,1,.759.039l.463.062a6.916,6.916,0,0,1,1.01.258l.471.181.453.22a7.04,7.04,0,0,1,.644.406,4.834,4.834,0,0,1,2.276,3.613,3.536,3.536,0,0,1-3.435,3.968" fill="#818472"/>
      <path id="Path_348" data-name="Path 348" d="M4422.555,158.093a6.963,6.963,0,0,1-1.719,1.608,31.756,31.756,0,0,1-6.166,2.715c-2.165.822-4.155,1.7-4.752.072-.117-.272-.232-.576-.342-.9l-.005-.006c-.579-1.668-1.112-3.875-1.653-5.69-.086-.275-.173-.554-.261-.84-.069-.228-.145-.462-.219-.7l-.016-.051c-.076-.238-.152-.48-.231-.728-.291-.9-.6-1.844-.926-2.844l-.1-.308-.007-.032-.1-.412a118.341,118.341,0,0,1-3.327-20.895c-.157-2.2-.251-4.383-.294-6.52,0-.248-.007-.5-.011-.744-.007-.5-.012-.992-.012-1.486,0-.253,0-.5,0-.747a97.631,97.631,0,0,1,3.735-27.272,30.745,30.745,0,0,1,4.677,3.894,101.709,101.709,0,0,0-2.677,23.378c0,.246,0,.494,0,.747,0,.494,0,.988.013,1.486,0,.246,0,.5.008.744q.063,3.217.293,6.52a121.737,121.737,0,0,0,2.162,15.862v.006l.02.076.017.094c.064.295.129.58.2.861s.14.576.209.857c.059.239.117.469.18.7.079.3.161.6.24.886l.124.428c.088.283.168.553.247.817l.132.408.121.369.131.385.026.066.042.117.058.166.111.291.14.379.059.147.031.08,0,.006.05.125.1.259.028.061.134.312.132.3.135.295.233.483.174.337.213.381.067.123c.1.18.205.348.31.518l.252.381.072.1.07.1.139.2.289.365.147.17.143.168.066.072.2.207.027.028.147.142.145.139.292.248.113.088.089.064.2.149.19.123a2.91,2.91,0,0,0,.616.262,2.137,2.137,0,0,0,1.25-.006,2.455,2.455,0,0,0,1.315-.727,1.027,1.027,0,0,0,.033-1.285,1.561,1.561,0,0,0-1.176-.309,1.717,1.717,0,0,1,1.563-1.611,2.207,2.207,0,0,1,2.08,3.738" fill="#818472"/>
      <path id="Path_349" data-name="Path 349" d="M4325.085,202.5a1.709,1.709,0,0,1-.653-.856L4316.4,180.1h-5.839v.518l3.066.371a.962.962,0,0,1,.711.41l-7.6,20.234a2.582,2.582,0,0,1-.661.9l-.272.179v.424h6.338v-.494l-4.188-.461-.244-.137.018-.271,7.073-19.215,3.925,10.955a5.336,5.336,0,0,0-3.7-1.439,4.073,4.073,0,0,0-3.182,1.379,4.867,4.867,0,0,0-1.223,3.341,5.375,5.375,0,0,0,1.281,3.6,7.162,7.162,0,0,0,3.077,2.113,11.448,11.448,0,0,0,3.822.629h6.619v-.429Zm-10.055-9.565c2.163,0,3.867,1.477,5.048,4.373l1.11,3.139a1.2,1.2,0,0,1-1.307,1.8h-1.074a9.8,9.8,0,0,1-5.145-1.459,4.459,4.459,0,0,1-2.149-4.053,3.988,3.988,0,0,1,.972-2.715,3.193,3.193,0,0,1,2.545-1.088" fill="#818472"/>
      <path id="Path_350" data-name="Path 350" d="M4336.22,197.631l-.07.14a15.885,15.885,0,0,1-2.5,3.9,4.194,4.194,0,0,1-2.959,1.6h-.116a3.73,3.73,0,0,1-2.98-1.146,5.29,5.29,0,0,1-.963-3.58v-10.68a.6.6,0,0,0-.18-.463.652.652,0,0,0-.457-.166h-1.65V186.5h.416a2.009,2.009,0,0,0,1.716-.858,2.908,2.908,0,0,0,.6-1.935,2.156,2.156,0,0,0-.665-1.559l-.072-.057v-.406h3.141l.006.186a5.571,5.571,0,0,1-.808,3.049,4.727,4.727,0,0,1-1.526,1.58h6.926v.734h-4.434c-.424,0-.6.184-.6.629v10.3a9.211,9.211,0,0,0,.524,3.326,1.357,1.357,0,0,0,1.4.885c1.391-.057,2.9-1.752,4.493-5.024l.1-.207Z" fill="#818472"/>
      <path id="Path_351" data-name="Path 351" d="M4361.358,198.8l-.036-.2-.822.178.039.184a5.572,5.572,0,0,1-.045,2.558c-.2.736-.48,1.113-.847,1.113-.573,0-.692-1.089-.692-2V193.6a7.822,7.822,0,0,0-1.667-5.469,6.415,6.415,0,0,0-4.989-1.884,6.279,6.279,0,0,0-3.529,1.107,7.156,7.156,0,0,0-2.542,3l-.056.125,3.724,3.481a11.358,11.358,0,0,0-2.988,1.882,3.614,3.614,0,0,0-1.091,2.276c-1.448,2.777-2.827,4.209-4.11,4.262a1.362,1.362,0,0,1-1.4-.885,9.191,9.191,0,0,1-.524-3.324v-10.3c0-.445.18-.633.6-.633h4.437v-.73h-6.927a4.719,4.719,0,0,0,1.53-1.58,5.581,5.581,0,0,0,.8-3.049l0-.19h-3.134v.406l.065.059a2.111,2.111,0,0,1,.661,1.557,2.908,2.908,0,0,1-.593,1.937,2.024,2.024,0,0,1-1.716.86h-.414v.73h1.646a.647.647,0,0,1,.456.168.6.6,0,0,1,.175.465v10.678a5.336,5.336,0,0,0,.969,3.582,3.74,3.74,0,0,0,2.985,1.146h.109a4.187,4.187,0,0,0,2.958-1.6,13.357,13.357,0,0,0,1.453-1.959,4.213,4.213,0,0,0,1.422,2.578,5.713,5.713,0,0,0,3.9,1.3,6.129,6.129,0,0,0,3.53-1.03,6.02,6.02,0,0,0,1.855-2.033v.117c0,1.864.816,2.846,2.435,2.912a2.161,2.161,0,0,0,1.579-.521,2.452,2.452,0,0,0,.755-1.424,9.023,9.023,0,0,0,.147-1.541,7.265,7.265,0,0,0-.1-1.266m-6.35,2.375a4.3,4.3,0,0,1-3.279,1.461,3.094,3.094,0,0,1-2.487-1.123,4.436,4.436,0,0,1-.967-2.964,4.341,4.341,0,0,1,.408-1.946,3.7,3.7,0,0,1,1.128-1.342,10.47,10.47,0,0,1,1.541-.931c.539-.264,1.163-.588,1.864-.973a10.271,10.271,0,0,0,1.786-1.2.717.717,0,0,0,.164-.852l-.209-.222-.135.134-.351.323-.367.322a2.581,2.581,0,0,1-.4.277c-.181.11-.328.2-.422.258a3.653,3.653,0,0,1-.438.24l-.445.223c-.083.043-.24.113-.466.219s-.383.174-.457.207-.241.1-.5.223l-.346.152a5.828,5.828,0,0,1-1.822-3.826,2.362,2.362,0,0,1,.959-2,4.14,4.14,0,0,1,2.587-.754,3.429,3.429,0,0,1,3.2,1.65,10.81,10.81,0,0,1,.986,5.412l0,3.5a5.9,5.9,0,0,1-1.539,3.535" fill="#818472"/>
      <path id="Path_352" data-name="Path 352" d="M4374.466,189.422l-3.949,3.847-.486-.488.129-.135a17.531,17.531,0,0,0,1.5-1.705,2.747,2.747,0,0,0,.506-1.262,2.61,2.61,0,0,0-.435-1.916,1.679,1.679,0,0,0-1.52-.625,2.563,2.563,0,0,0-1.818,1.3,10.538,10.538,0,0,0-1.432,3.127,34.147,34.147,0,0,0-.852,3.7,22.067,22.067,0,0,0-.34,3.252v3a.661.661,0,0,0,.6.733l2.248.412v.476h-5.9v-.4l.087-.09a1.406,1.406,0,0,0,.546-1.135v-13.4a1.48,1.48,0,0,0-.483-1.108h-.119l-.031-.193V186.5h4.629v.459l-.993.3a.814.814,0,0,0-.588.862v4.451q.2-.929.462-1.752a10.3,10.3,0,0,1,1.6-3.129,3.468,3.468,0,0,1,2.518-1.568,3.749,3.749,0,0,1,2.7.705,4.048,4.048,0,0,1,1.4,2.492Z" fill="#818472"/>
      <path id="Path_353" data-name="Path 353" d="M4400.622,198.8l-.036-.2-.817.178.031.184a5.54,5.54,0,0,1-.042,2.558c-.193.736-.479,1.113-.848,1.113-.574,0-.691-1.089-.691-2V193.6a7.846,7.846,0,0,0-1.667-5.469,6.409,6.409,0,0,0-4.991-1.884,6.273,6.273,0,0,0-3.528,1.107,7.137,7.137,0,0,0-2.54,3l-.058.125,3.724,3.481a11.28,11.28,0,0,0-2.987,1.882,3.919,3.919,0,0,0-1.142,2.989,4.391,4.391,0,0,0,1.494,3.459,5.724,5.724,0,0,0,3.9,1.3,6.115,6.115,0,0,0,3.531-1.03,5.954,5.954,0,0,0,1.856-2.033v.117c0,1.864.817,2.846,2.434,2.912a2.145,2.145,0,0,0,1.578-.521,2.413,2.413,0,0,0,.754-1.424,8.9,8.9,0,0,0,.149-1.541,7.06,7.06,0,0,0-.1-1.266m-6.35,2.375a4.311,4.311,0,0,1-3.28,1.461,3.085,3.085,0,0,1-2.484-1.123,4.422,4.422,0,0,1-.971-2.964,4.328,4.328,0,0,1,.408-1.946,3.721,3.721,0,0,1,1.129-1.342,10.47,10.47,0,0,1,1.541-.931c.539-.264,1.165-.588,1.864-.973a10.4,10.4,0,0,0,1.786-1.2.714.714,0,0,0,.164-.852l-.2-.222-.142.134-.351.323-.368.322a2.518,2.518,0,0,1-.4.277c-.182.11-.321.2-.418.258a4.519,4.519,0,0,1-.438.244l-.447.219c-.081.043-.24.113-.468.219s-.381.174-.456.207-.219.1-.458.207l-.04.016-.342.152a5.849,5.849,0,0,1-1.826-3.826,2.369,2.369,0,0,1,.959-2,4.142,4.142,0,0,1,2.59-.754,3.417,3.417,0,0,1,3.194,1.65,10.788,10.788,0,0,1,.989,5.412l0,3.5a5.892,5.892,0,0,1-1.537,3.535" fill="#818472"/>
      <path id="Path_354" data-name="Path 354" d="M4404.684,181.752v19.771a.688.688,0,0,0,.634.764l1.9.379v.478h-5.578v-.4l.09-.09a1.315,1.315,0,0,0,.547-1.135V180.1h4.941v.471l-1.894.414a.688.688,0,0,0-.637.764" fill="#818472"/>
      <path id="Path_355" data-name="Path 355" d="M4433.169,182.2v19.328a1.291,1.291,0,0,0,.525,1.115l.113.11v.4h-6.979v-.486l3.176-.436a.617.617,0,0,0,.631-.7v-9.849a2.148,2.148,0,0,1-1.68.824,7.207,7.207,0,0,1-3.533-1.586,7.118,7.118,0,0,0-3.123-1.524,1.677,1.677,0,0,0-1.357.692,2.58,2.58,0,0,0-.6,1.566v9.877a.613.613,0,0,0,.625.7l3.176.436v.486h-6.975v-.4l.088-.09a1.308,1.308,0,0,0,.548-1.135V182.2a1.432,1.432,0,0,0-.482-1.107h-.125l-.029-.192v-.316h6.975v.48l-3.176.44a.61.61,0,0,0-.625.7v7.262a2.823,2.823,0,0,1,.594-.481,2.4,2.4,0,0,1,1.306-.412,4.659,4.659,0,0,1,2.428.807c.83.512,1.641,1.033,2.413,1.554,1.5,1,2.519.961,3.1.069a2.855,2.855,0,0,0,.46-1.576V182.2a.613.613,0,0,0-.627-.7l-3.18-.44v-.48h6.979v.508h-.153a1.41,1.41,0,0,0-.485,1.107" fill="#818472"/>
      <path id="Path_356" data-name="Path 356" d="M4450.311,198.8l-.034-.2-.827.178.04.184a5.473,5.473,0,0,1-.045,2.558c-.193.736-.48,1.113-.843,1.113-.577,0-.693-1.089-.693-2V193.6a7.832,7.832,0,0,0-1.669-5.469,6.4,6.4,0,0,0-4.989-1.884,6.274,6.274,0,0,0-3.528,1.107,7.14,7.14,0,0,0-2.541,3l-.059.125,3.727,3.481a11.294,11.294,0,0,0-2.991,1.882,3.927,3.927,0,0,0-1.138,2.989,4.393,4.393,0,0,0,1.494,3.459,5.716,5.716,0,0,0,3.894,1.3,6.136,6.136,0,0,0,3.532-1.03,5.965,5.965,0,0,0,1.853-2.033v.117c0,1.864.821,2.846,2.438,2.912a2.151,2.151,0,0,0,1.577-.521,2.433,2.433,0,0,0,.755-1.424,9.141,9.141,0,0,0,.148-1.541,7.294,7.294,0,0,0-.1-1.266m-6.35,2.375a4.306,4.306,0,0,1-3.28,1.461,3.1,3.1,0,0,1-2.488-1.123,4.452,4.452,0,0,1-.964-2.964,4.347,4.347,0,0,1,.406-1.946,3.723,3.723,0,0,1,1.13-1.342,10.345,10.345,0,0,1,1.541-.931c.536-.264,1.163-.594,1.862-.973a10.15,10.15,0,0,0,1.785-1.2.717.717,0,0,0,.164-.852l-.207-.222-.135.134-.349.323-.369.322a2.416,2.416,0,0,1-.4.277c-.181.11-.321.192-.42.258a4.289,4.289,0,0,1-.438.244l-.447.219c-.078.043-.241.113-.465.219s-.386.178-.455.207-.225.1-.459.207l-.04.016-.344.152a5.829,5.829,0,0,1-1.823-3.826,2.359,2.359,0,0,1,.959-2,4.137,4.137,0,0,1,2.59-.754,3.417,3.417,0,0,1,3.193,1.65,10.75,10.75,0,0,1,.986,5.412l0,3.5a5.874,5.874,0,0,1-1.538,3.535" fill="#818472"/>
      <path id="Path_357" data-name="Path 357" d="M4464.926,198.865a4.144,4.144,0,0,1-2,3.467,7.921,7.921,0,0,1-4.553,1.258l-.265,0a9.371,9.371,0,0,1-4.381-1.069,6.469,6.469,0,0,1-2.826-2.838l-.058-.129,3.692-3.425.532.527-.154.141a4.081,4.081,0,0,0-1.68,2.986,2.3,2.3,0,0,0,1.271,2.074,7.013,7.013,0,0,0,3.516.91,6.489,6.489,0,0,0,3.572-.83,2.51,2.51,0,0,0,1.365-2.156c.018-1.051-.806-1.984-2.453-2.768l-5.961-2.82c-1.838-.853-2.75-2.131-2.709-3.793a3.8,3.8,0,0,1,1.732-3.1,7.147,7.147,0,0,1,4.2-1.114,7.918,7.918,0,0,1,3.875.977,5.609,5.609,0,0,1,2.41,2.691l.057.117-3.178,3.207-.5-.5.143-.134a4.982,4.982,0,0,0,1.02-1.422,3.931,3.931,0,0,0,.439-1.522,2.1,2.1,0,0,0-1.146-1.812,6.094,6.094,0,0,0-3.136-.776,5.544,5.544,0,0,0-2.983.655,2.075,2.075,0,0,0-1.1,1.82c0,1.127.689,1.994,2.1,2.641l6.18,2.853c1.966.9,2.966,2.2,2.966,3.883" fill="#818472"/>
    </g>
  </g>
</svg>
