<svg xmlns="http://www.w3.org/2000/svg" width="19.455" height="19.548" viewBox="0 0 19.455 19.548">
  <g id="Group_134" data-name="Group 134" transform="translate(-1303.702 -1405.755)">
    <path id="Path_112" data-name="Path 112" d="M1320.323,1408.595a9.689,9.689,0,0,0-15.246,11.688l-1.375,5.02,5.135-1.347a9.67,9.67,0,0,0,4.63,1.179h0a9.692,9.692,0,0,0,6.852-16.54Zm-6.853,14.9h0a8.043,8.043,0,0,1-4.1-1.122l-.294-.175-3.047.8.813-2.971-.191-.305a8.051,8.051,0,1,1,6.82,3.773Z" fill="#8d8d91" fill-rule="evenodd"/>
    <path id="Path_113" data-name="Path 113" d="M1317.887,1417.469c-.242-.121-1.432-.706-1.654-.787s-.383-.121-.545.121-.625.787-.766.949-.283.182-.524.06a6.586,6.586,0,0,1-1.947-1.2,7.287,7.287,0,0,1-1.346-1.677c-.142-.242-.015-.373.106-.494s.242-.282.363-.424a1.662,1.662,0,0,0,.242-.4.447.447,0,0,0-.02-.424c-.061-.122-.545-1.313-.747-1.8s-.4-.408-.544-.415-.3-.009-.464-.009a.889.889,0,0,0-.645.3,2.715,2.715,0,0,0-.848,2.019,4.7,4.7,0,0,0,.989,2.5,10.785,10.785,0,0,0,4.134,3.655,14.241,14.241,0,0,0,1.38.51,3.328,3.328,0,0,0,1.525.1,2.492,2.492,0,0,0,1.633-1.151,2.028,2.028,0,0,0,.142-1.151C1318.29,1417.651,1318.129,1417.59,1317.887,1417.469Z" fill="#8d8d91" fill-rule="evenodd"/>
  </g>
</svg>
